<?xml version="1.0" standalone="no"?><!DOCTYPE svg PUBLIC "-//W3C//DTD SVG 1.1//EN" "http://www.w3.org/Graphics/SVG/1.1/DTD/svg11.dtd"><svg t="1619363183008" class="icon" viewBox="0 0 1024 1024" version="1.1" xmlns="http://www.w3.org/2000/svg" p-id="6485" xmlns:xlink="http://www.w3.org/1999/xlink" width="128" height="128"><defs><style type="text/css"></style></defs><path d="M206.30528 825.35936h50.52416c46.02368 0 83.46624-37.38624 83.46624-83.46624v-202.0608c0-46.02368-37.43744-83.46624-83.46624-83.46624h-50.52416c-46.02368 0-83.46624 37.43744-83.46624 83.46624v202.0608c0.00512 46.08 37.44256 83.46624 83.46624 83.46624z m-27.82208-285.52704a27.87328 27.87328 0 0 1 27.82208-27.82208h50.52416a27.87328 27.87328 0 0 1 27.82208 27.82208v202.0608a27.87328 27.87328 0 0 1-27.82208 27.82208h-50.52416a27.87328 27.87328 0 0 1-27.82208-27.82208v-202.0608zM472.99584 825.35936h50.52416c46.02368 0 83.46624-37.38624 83.46624-83.46624V372.90496c0-46.02368-37.43744-83.46624-83.46624-83.46624h-50.52416c-46.02368 0-83.46624 37.43744-83.46624 83.46624v368.98816c0.00512 46.08 37.44256 83.46624 83.46624 83.46624z m-27.82208-452.4544a27.87328 27.87328 0 0 1 27.82208-27.82208h50.52416a27.87328 27.87328 0 0 1 27.82208 27.82208v368.98816a27.87328 27.87328 0 0 1-27.82208 27.82208h-50.52416a27.87328 27.87328 0 0 1-27.82208-27.82208V372.90496zM739.6864 825.35936h50.52416c46.02368 0 83.46624-37.38624 83.46624-83.46624V150.33856c0-46.02368-37.43744-83.46624-83.46624-83.46624h-50.52416c-46.02368 0-83.46624 37.43744-83.46624 83.46624v591.55968c0.00512 46.07488 37.44256 83.46112 83.46624 83.46112z m-27.82208-675.0208a27.87328 27.87328 0 0 1 27.82208-27.82208h50.52416a27.87328 27.87328 0 0 1 27.82208 27.82208v591.55968a27.87328 27.87328 0 0 1-27.82208 27.82208h-50.52416a27.87328 27.87328 0 0 1-27.82208-27.82208V150.33856zM929.31584 901.48352H94.68416a27.84256 27.84256 0 0 0-27.82208 27.82208 27.77088 27.77088 0 0 0 27.82208 27.82208h834.63168a27.776 27.776 0 0 0 27.82208-27.82208 27.83744 27.83744 0 0 0-27.82208-27.82208z" p-id="6486"></path></svg>